<?xml version="1.0" standalone="no"?>
<!DOCTYPE svg PUBLIC "-//W3C//DTD SVG 20010904//EN"
        "http://www.w3.org/TR/2001/REC-SVG-20010904/DTD/svg10.dtd">
<svg version="1.0" xmlns="http://www.w3.org/2000/svg"
     width="512.000000pt" height="512.000000pt" viewBox="0 0 512.000000 512.000000"
     preserveAspectRatio="xMidYMid meet">

    <defs>
        <linearGradient id="orangeGradient" x1="0" y1="0" x2="0" y2="1">
            <stop offset="0%" stop-color="#FF7431"/>
            <stop offset="100%" stop-color="#FCAC01"/>
        </linearGradient>
    </defs>

    <rect fill="#FF5A1F" width="100%" height="100%"/>

    <g transform="translate(0.000000,512.000000) scale(0.100000,-0.100000)"
       fill="#F9F9F9" stroke="none">
        <path d="M2525 4440 c-136 -64 -214 -107 -221 -120 -7 -12 -31 -88 -54 -170
l-43 -149 68 -81 c37 -44 66 -82 64 -84 -2 -2 -36 -20 -76 -40 -67 -33 -73
-39 -83 -78 -7 -24 -27 -95 -46 -159 -19 -64 -34 -120 -34 -126 0 -5 29 -44
65 -85 36 -42 65 -79 65 -82 0 -4 -33 -22 -74 -40 -71 -33 -75 -36 -86 -78 -7
-23 -27 -95 -46 -159 -19 -64 -34 -121 -34 -126 0 -6 29 -46 65 -88 36 -42 65
-78 65 -80 0 -9 -102 -56 -116 -53 -7 2 -71 71 -141 154 -520 614 -797 936
-808 941 -10 3 -436 -186 -453 -202 -6 -6 -92 -309 -92 -325 0 -9 216 -272
480 -583 l480 -566 63 28 c34 16 126 58 205 95 79 37 148 68 153 69 8 2 119
-121 119 -133 0 -3 -32 -18 -71 -35 -42 -18 -74 -38 -79 -50 -22 -51 -92 -315
-87 -327 11 -25 949 -1123 962 -1126 14 -3 421 183 442 202 7 7 34 84 60 173
l46 162 -74 88 c-41 48 -165 196 -277 328 -112 132 -247 292 -301 355 -53 63
-101 120 -105 127 -7 12 79 63 106 63 7 0 80 -79 162 -176 82 -97 154 -178
160 -180 6 -2 102 39 214 91 111 52 206 95 210 95 4 0 72 -76 150 -169 78 -93
149 -174 157 -181 13 -10 38 -2 143 45 70 32 156 73 192 90 109 54 87 66 255
-135 83 -98 157 -179 166 -179 13 -1 436 192 448 204 2 2 23 71 46 152 24 81
46 155 49 164 5 11 -33 62 -121 165 -70 82 -145 171 -167 197 -21 26 -43 47
-48 47 -5 0 -100 -43 -212 -95 -111 -52 -205 -95 -209 -95 -3 0 -74 81 -158
180 -84 99 -158 180 -164 180 -7 0 -103 -43 -215 -95 -112 -52 -204 -95 -205
-95 -2 0 -72 81 -156 180 -84 99 -160 180 -168 180 -9 0 -92 -36 -186 -81 -93
-44 -184 -87 -202 -94 l-32 -14 -55 66 c-31 35 -56 68 -56 71 1 4 34 22 74 41
l74 33 48 168 47 168 -66 78 c-37 44 -67 82 -67 85 0 4 30 19 66 35 36 15 72
37 79 48 7 12 32 89 56 172 l43 152 -68 81 c-38 45 -67 83 -65 85 2 2 37 20
77 40 39 20 72 38 72 39 0 2 20 72 45 157 25 85 45 159 45 165 0 19 -320 390
-338 392 -9 1 -111 -43 -227 -97z m351 -112 c71 -83 132 -157 136 -163 5 -8
-52 -40 -179 -100 -183 -86 -186 -87 -202 -67 -9 11 -69 83 -135 160 -65 77
-117 144 -115 148 4 8 347 174 360 174 4 0 65 -68 135 -152z m-406 -228 l123
-145 -98 -46 -99 -46 -64 75 c-38 44 -62 81 -59 91 47 169 63 221 68 219 3 -2
61 -68 129 -148z m305 -354 c74 -88 132 -163 128 -166 -5 -4 -88 -44 -186 -90
-153 -72 -180 -82 -191 -69 -36 37 -266 313 -263 315 8 8 363 172 369 171 4
-1 68 -74 143 -161z m-1282 -595 c247 -292 448 -533 447 -538 -1 -8 -345 -173
-361 -173 -10 0 -898 1045 -901 1061 -3 10 331 176 357 178 6 0 212 -237 458
-528z m847 403 c58 -69 113 -136 123 -149 l18 -23 -98 -46 c-53 -26 -99 -43
-103 -39 -3 5 -32 38 -64 76 l-58 67 33 120 c19 66 36 120 39 119 3 0 52 -57
110 -125z m-1255 -629 c245 -289 445 -533 444 -542 0 -10 -15 -66 -32 -125
l-32 -106 -445 525 c-245 288 -446 531 -448 539 -3 13 58 234 64 234 2 0 204
-236 449 -525z m1578 250 c75 -88 133 -163 129 -167 -9 -9 -351 -168 -361
-168 -14 0 -285 324 -275 327 5 2 88 42 184 87 96 46 178 83 181 82 4 0 68
-73 142 -161z m-432 -197 c61 -73 119 -141 127 -150 13 -16 7 -21 -83 -63 -54
-25 -99 -45 -100 -45 -1 0 -30 34 -65 75 l-62 76 33 119 c19 66 35 120 36 120
0 0 52 -60 114 -132z m454 -537 c0 -3 -83 -44 -184 -92 l-184 -86 -136 159
c-75 88 -137 163 -138 167 -1 3 82 45 184 92 l186 87 136 -161 c75 -88 136
-163 136 -166z m610 -12 c76 -88 136 -162 134 -164 -2 -2 -86 -42 -187 -89
l-183 -85 -28 32 c-16 18 -79 92 -140 164 l-112 133 123 57 c68 32 148 70 178
85 30 14 60 27 67 27 6 1 73 -71 148 -160z m-1240 53 c23 -26 78 -91 124 -145
l83 -97 -98 -47 -98 -46 -39 44 c-21 24 -50 58 -63 76 l-25 32 32 115 c18 64
35 116 38 116 3 0 24 -21 46 -48z m1979 -221 c75 -88 136 -162 136 -164 0 -2
-83 -43 -185 -91 l-184 -88 -29 34 c-86 98 -250 293 -248 295 5 5 361 173 368
173 3 0 67 -72 142 -159z m-1146 -58 l130 -152 -34 -117 c-18 -64 -35 -118
-37 -120 -3 -3 -208 236 -250 291 -17 23 -16 27 15 139 18 64 36 115 40 113 4
-1 65 -70 136 -154z m1887 -114 c75 -89 133 -165 128 -169 -13 -13 -356 -171
-363 -168 -4 2 -68 75 -143 163 l-135 160 111 52 c62 29 144 68 182 87 39 19
73 35 77 35 3 1 68 -71 143 -160z m-2016 -431 c248 -292 449 -533 447 -535 -6
-7 -358 -173 -365 -173 -10 0 -906 1059 -905 1068 2 8 343 170 360 171 7 1
215 -238 463 -531z m867 377 c60 -71 115 -137 121 -145 9 -12 5 -39 -20 -126
-18 -62 -35 -113 -39 -115 -10 -6 -269 303 -265 316 3 5 16 53 31 105 38 134
34 126 50 109 7 -8 62 -72 122 -144z m735 -165 c63 -74 120 -142 126 -151 10
-13 6 -37 -20 -128 -17 -62 -36 -113 -41 -113 -4 0 -66 68 -136 152 l-128 152
15 51 c8 29 23 83 35 121 11 38 23 65 28 60 4 -5 59 -70 121 -144z m-2026
-420 c235 -278 436 -514 445 -525 17 -19 17 -25 -16 -134 -18 -62 -35 -115
-37 -118 -4 -4 -874 1016 -891 1045 -9 15 53 244 65 240 4 -2 199 -230 434
-508z"/>
    </g>
</svg>
